<svg width="86" height="44" viewBox="0 0 86 44" fill="none" xmlns="http://www.w3.org/2000/svg">
<path d="M35.9287 25.3936H51.849C51.6034 25.8418 51.3798 26.3297 51.2493 26.6421C51.1187 26.9546 51.0127 27.2504 50.9184 27.5501C50.824 27.851 50.74 28.157 50.6651 28.4938C50.5888 28.8319 50.5216 29.2007 50.4673 29.6322C49.9891 29.6322 49.5405 29.6322 49.114 29.6322C48.6874 29.6322 48.2842 29.6322 47.8964 29.6322C47.5086 29.6322 47.139 29.6322 46.7796 29.6322C46.4203 29.6322 46.0713 29.6322 45.7275 29.6322C45.3837 29.6322 45.045 29.6322 44.7064 29.6322C44.3678 29.6322 44.0291 29.6322 43.6853 29.6322C43.3415 29.6322 42.9925 29.6322 42.6344 29.6322C42.2764 29.6322 41.908 29.6322 41.528 29.6322C41.1467 29.6322 40.7525 29.6322 40.3428 29.6322C40.2859 30.0817 40.2626 30.4275 40.2497 30.7758C40.2368 31.1241 40.2329 31.475 40.2549 31.9513C40.6607 31.9513 41.0524 31.9513 41.4298 31.9513C41.8072 31.9513 42.1717 31.9513 42.5272 31.9513C42.8826 31.9513 43.2277 31.9513 43.5677 31.9513C43.9076 31.9513 44.2437 31.9513 44.5784 31.9513C44.9132 31.9513 45.2493 31.9513 45.5892 31.9513C45.9291 31.9513 46.2756 31.9513 46.631 31.9513C46.9877 31.9513 47.3535 31.9513 47.7374 31.9513C48.1213 31.9513 48.5207 31.9513 48.9434 31.9513C49.366 31.9513 49.8107 31.9513 50.2837 31.9513C50.3031 32.3841 50.3393 32.7683 50.3846 33.1281C50.4285 33.488 50.4828 33.8222 50.5461 34.159C50.6095 34.4958 50.6844 34.8351 50.7775 35.2052C50.8706 35.5753 50.983 35.9761 51.133 36.4371C50.6599 36.4371 50.2152 36.4371 49.7926 36.4371C49.3699 36.4371 48.9705 36.4371 48.5866 36.4371C48.2027 36.4371 47.8357 36.4371 47.4802 36.4371C47.1235 36.4371 46.7784 36.4371 46.4384 36.4371C46.0985 36.4371 45.7624 36.4371 45.4276 36.4371C45.0916 36.4371 44.7568 36.4371 44.4156 36.4371C44.0756 36.4371 43.7292 36.4371 43.3738 36.4371C43.0183 36.4371 42.6538 36.4371 42.2764 36.4371C41.899 36.4371 41.5086 36.4371 41.1015 36.4371C41.2721 36.9608 41.4207 37.3565 41.5797 37.7535C41.7387 38.1505 41.908 38.5487 42.1627 39.0802C42.5737 39.0802 42.9679 39.0802 43.3492 39.0802C43.7305 39.0802 44.0989 39.0802 44.4569 39.0802C44.815 39.0802 45.164 39.0802 45.5078 39.0802C45.8516 39.0802 46.1902 39.0802 46.5289 39.0802C46.8675 39.0802 47.2062 39.0802 47.55 39.0802C47.8938 39.0802 48.2428 39.0802 48.6021 39.0802C48.9615 39.0802 49.3324 39.0802 49.7202 39.0802C50.108 39.0802 50.5112 39.0802 50.9378 39.0802C51.3643 39.0802 51.8141 39.0802 52.2911 39.0802C52.4798 39.4746 52.662 39.8293 52.8404 40.1609C53.0201 40.4926 53.1959 40.8012 53.3742 41.1009C53.5526 41.4005 53.7349 41.6925 53.9287 41.9921C54.1226 42.2918 54.3307 42.5991 54.5634 42.9282C54.796 43.2586 55.0558 43.6107 55.3583 44.0013H39.4367C39.0295 43.4763 38.6612 42.9666 38.3238 42.4711C37.9877 41.9755 37.6827 41.494 37.4048 41.0266C37.1269 40.5579 36.8774 40.1033 36.6499 39.659C36.4225 39.2146 36.2182 38.7818 36.0334 38.3592C35.8486 37.9366 35.6831 37.523 35.5345 37.1158C35.3858 36.7099 35.2553 36.3116 35.139 35.9185C35.0226 35.5253 34.9231 35.1386 34.8365 34.7557C34.7499 34.3728 34.6775 33.9938 34.6193 33.616C34.5612 33.2396 34.5159 32.8644 34.4862 32.4904C34.4565 32.1165 34.4384 31.7426 34.4371 31.3687C34.4358 30.9947 34.4487 30.6195 34.4785 30.2431C34.5082 29.8666 34.5547 29.4875 34.6193 29.1072C34.684 28.7269 34.768 28.344 34.874 27.9586C34.98 27.5731 35.1079 27.1864 35.263 26.7971C35.4168 26.4078 35.665 25.8649 35.9287 25.3859V25.3936Z" fill="white"/>
<path d="M54.756 25.3885H62.7013C62.8461 25.7983 62.965 26.2913 63.1627 26.6115C63.3605 26.9317 63.5634 27.2454 63.7702 27.554C63.977 27.8627 64.1864 28.1662 64.401 28.4671C64.6156 28.7681 64.834 29.0665 65.0589 29.3636C65.2838 29.662 65.5152 29.9604 65.7543 30.2626C65.9934 30.5648 66.2416 30.8709 66.5014 31.1834C66.7612 31.4971 67.0326 31.8173 67.3209 32.149C67.6091 32.4807 67.9141 32.8252 68.2399 33.185C68.5669 33.5449 68.9146 33.9214 69.2907 34.3171C69.6668 34.7141 70.0714 35.1303 70.5109 35.5734C70.3596 35.0215 70.2459 34.5079 70.158 34.0251C70.0701 33.5423 70.0094 33.089 69.9693 32.6574C69.9279 32.2258 69.9073 31.816 69.9034 31.4203C69.8995 31.0233 69.9111 30.6404 69.9396 30.2626C69.968 29.8848 70.0119 29.5134 70.0727 29.1395C70.1347 28.7668 70.2136 28.3929 70.3157 28.0125C70.4178 27.6322 70.5419 27.2454 70.697 26.8497C70.8521 26.4527 71.1016 25.9007 71.3808 25.3872H77.0395C76.7784 25.8662 76.5303 26.4092 76.3752 26.7985C76.2214 27.1878 76.0934 27.5758 75.9874 27.9613C75.8827 28.348 75.8 28.7322 75.7354 29.1139C75.672 29.4968 75.6268 29.8758 75.5996 30.2549C75.5725 30.634 75.5609 31.0105 75.5635 31.387C75.5673 31.7635 75.5854 32.1387 75.6177 32.5152C75.65 32.8918 75.6966 33.2683 75.756 33.6473C75.8155 34.0264 75.8892 34.4067 75.9771 34.7922C76.065 35.1764 76.1658 35.5657 76.2834 35.9589C76.3997 36.352 76.5316 36.7516 76.6802 37.1589C76.8289 37.5648 76.9943 37.9797 77.1791 38.4023C77.364 38.825 77.5669 39.2565 77.7931 39.6996C78.0193 40.1415 78.2675 40.5948 78.5428 41.0597C78.8181 41.5245 79.1192 42.0022 79.4514 42.4914C79.7836 42.9819 80.1481 43.4852 80.5488 44.0013H74.3019C73.8327 43.6901 73.3868 43.3879 72.9615 43.0959C72.5363 42.8026 72.1304 42.5183 71.7401 42.2417C71.351 41.9651 70.9775 41.6962 70.6195 41.4323C70.2601 41.1698 69.915 40.9124 69.5802 40.6601C69.2455 40.4078 68.9223 40.1607 68.607 39.9161C68.2916 39.6715 67.9852 39.4307 67.6841 39.1912C67.3842 38.9517 67.0895 38.7148 66.7987 38.4779C66.5079 38.241 66.2222 38.0041 65.9391 37.7659C65.6561 37.5277 65.3743 37.2882 65.0938 37.0462C64.8133 36.8041 64.5341 36.5595 64.2536 36.3111C63.9732 36.0626 63.6927 35.8103 63.4109 35.5516C63.1291 35.2942 62.8448 35.0304 62.5591 34.7602C62.2735 34.49 61.9852 34.2147 61.6944 33.9304C61.4036 33.6461 61.1102 33.3554 60.8142 33.0544C60.8697 33.5206 60.9447 33.9662 61.0313 34.3952C61.1192 34.8242 61.2187 35.2353 61.3299 35.6349C61.4411 36.0344 61.5626 36.4199 61.6931 36.799C61.8237 37.1781 61.9645 37.5494 62.1158 37.9183C62.267 38.2871 62.4299 38.6546 62.6056 39.026C62.7814 39.3974 62.9701 39.7714 63.177 40.1555C63.3838 40.5397 63.6087 40.9316 63.8568 41.3389C64.105 41.7461 64.3764 42.1687 64.6802 42.6105C64.9839 43.0524 65.3187 43.5147 65.6961 44H58.2653C57.8607 43.4788 57.4949 42.9717 57.1601 42.4786C56.8254 41.9856 56.5229 41.5066 56.2463 41.0392C55.9697 40.573 55.7202 40.1184 55.494 39.6753C55.2678 39.2322 55.0636 38.7994 54.8788 38.3767C54.694 37.9541 54.5285 37.5405 54.3799 37.1332C54.2312 36.7273 54.1007 36.3277 53.9843 35.9346C53.868 35.5414 53.7672 35.1534 53.6806 34.7705C53.594 34.3863 53.5216 34.0072 53.4622 33.6294C53.4027 33.2516 53.3575 32.8764 53.3264 32.5012C53.2954 32.1259 53.2773 31.752 53.2747 31.3768C53.2722 31.0015 53.2851 30.625 53.3135 30.2485C53.3419 29.8707 53.3872 29.4917 53.4518 29.11C53.5164 28.7284 53.5992 28.3455 53.7052 27.96C53.8111 27.5745 53.9391 27.1865 54.0929 26.7972C54.2467 26.4079 54.4949 25.8649 54.7573 25.3859L54.756 25.3885Z" fill="white"/>
<path d="M39.528 0H45.1389C45.6301 0.643534 46.0722 1.24278 46.4716 1.80554C46.871 2.36831 47.2277 2.8959 47.547 3.39614C47.8662 3.89638 48.1493 4.36796 48.3987 4.81869C48.6495 5.26942 48.8667 5.69932 49.0567 6.11357C49.2454 6.52783 49.4069 6.92515 49.5414 7.31206C49.6771 7.69896 49.7857 8.07414 49.8723 8.4428C49.9589 8.81147 50.0222 9.17101 50.0623 9.52795C50.1036 9.88489 50.123 10.2379 50.1204 10.5897C50.1191 10.9427 50.0959 11.2944 50.0519 11.6487C50.008 12.0031 49.9433 12.3613 49.8567 12.7248C49.7701 13.0882 49.6616 13.4582 49.531 13.8373C49.4005 14.2164 49.248 14.6085 49.0476 15.0488C48.8486 15.4878 48.6301 15.9086 48.3936 16.3124C48.157 16.7176 47.9037 17.1071 47.6336 17.4874C47.3634 17.8678 47.0765 18.2378 46.7753 18.6039C46.4741 18.9699 46.1588 19.3321 45.833 19.6968C45.506 20.0616 45.1687 20.4302 44.8223 20.8106C44.4772 21.191 44.1243 21.5831 43.7701 22H38.1592C38.5133 21.5831 38.8662 21.191 39.2113 20.8106C39.5564 20.4302 39.8951 20.0629 40.2221 19.6968C40.5491 19.3321 40.8645 18.9699 41.1644 18.6039C41.4655 18.2378 41.7512 17.8678 42.0226 17.4874C42.2927 17.1071 42.5461 16.7176 42.7826 16.3124C43.0192 15.9073 43.2376 15.4878 43.4367 15.0488C43.6357 14.6098 43.7882 14.2164 43.9201 13.8373C44.0506 13.4582 44.1592 13.0882 44.2458 12.7248C44.3324 12.3613 44.397 12.0044 44.441 11.65C44.4849 11.2957 44.5082 10.944 44.5095 10.591C44.5121 10.2392 44.4927 9.88619 44.4513 9.52925C44.4099 9.17231 44.3479 8.81146 44.2613 8.4441C44.1747 8.07674 44.0661 7.70026 43.9304 7.31466C43.7947 6.92906 43.6344 6.53044 43.4457 6.11618C43.257 5.70192 43.0386 5.27203 42.7878 4.82129C42.537 4.37056 42.2553 3.89768 41.9347 3.39875C41.6155 2.89851 41.2587 2.37091 40.858 1.80815C40.4586 1.24538 40.0166 0.64614 39.5241 0.00130397L39.528 0Z" fill="white"/>
<path d="M49.4005 21.0698C48.5785 20.4823 48.6082 19.4036 49.0451 18.4056C49.4122 17.5706 50.5212 15.9121 50.9723 15.0002C52.977 15.0002 54.8266 15.0002 56.8391 15.0002C56.684 15.3558 55.8646 16.544 55.7689 16.884C55.4264 18.3288 57.2347 18.0773 57.9869 18.0083C58.6707 17.8976 59.3661 17.6565 59.9206 17.1419C60.2747 16.8319 60.5785 16.4176 60.6845 15.86C60.8137 14.5377 57.6095 13.1528 56.8728 12.7946C54.2786 11.5348 51.1468 9.81773 51.1468 6.30414C51.1468 3.39634 53.5276 0 57.2631 0C61.4122 0 65.0391 0.525022 67.6914 7.50139C65.5884 7.50139 63.563 7.50269 61.5492 7.50269C61.217 4.45159 56.9309 4.82549 56.9309 6.38491C56.9309 9.50246 65.317 7.66033 67.0761 14.156C67.8555 17.0312 64.0296 22 55.4923 22C54.011 22 50.6737 21.9609 49.3979 21.0698H49.4005Z" fill="white"/>
<path d="M66.4826 0H81.0716C81.4374 0.479394 81.7528 0.904074 82.0371 1.29488C82.3215 1.68569 82.571 2.04003 82.801 2.37613C83.0311 2.71222 83.2418 3.02878 83.4421 3.34012C83.6412 3.65147 83.8299 3.9563 84.0134 4.26765C84.197 4.57899 84.3741 4.89425 84.5486 5.22644C84.7231 5.55862 84.8937 5.90644 85.0591 6.27902C84.6843 6.27902 84.3185 6.27902 83.9604 6.27902C83.6024 6.27902 83.2547 6.27902 82.9109 6.27902C82.5671 6.27902 82.2284 6.27902 81.8898 6.27902C81.5511 6.27902 81.2138 6.27902 80.8687 6.27902C80.5236 6.27902 80.1746 6.27902 79.8114 6.27902C79.4482 6.27902 79.072 6.27902 78.6739 6.27902C78.2758 6.27902 77.857 6.27902 77.4085 6.27902C76.96 6.27902 76.907 6.27902 76.3874 6.27902C76.6459 6.86263 76.7984 7.28861 76.929 7.71068C77.0595 8.13276 77.1694 8.54962 77.2599 9.10197C77.7756 9.10197 77.8247 9.10197 78.2706 9.10197C78.7166 9.10197 79.1328 9.10197 79.5283 9.10197C79.9238 9.10197 80.2974 9.10197 80.6593 9.10197C81.0199 9.10197 81.3689 9.10197 81.7101 9.10197C82.0526 9.10197 82.3887 9.10197 82.7248 9.10197C83.0608 9.10197 83.3982 9.10197 83.7407 9.10197C84.0832 9.10197 84.4296 9.10197 84.7864 9.10197C85.1431 9.10197 85.5063 9.10197 85.8812 9.10197C85.9626 9.60221 85.9949 10.0386 86.0001 10.4437C86.0053 10.8489 85.9833 11.2241 85.9393 11.6019C85.8954 11.9796 85.8282 12.36 85.7274 12.7795C85.6265 13.1977 85.4908 13.6536 85.2892 14.1903C84.9156 14.1903 84.5498 14.1903 84.1944 14.1903C83.8389 14.1903 83.4913 14.1903 83.1487 14.1903C82.8062 14.1903 82.4701 14.1903 82.1328 14.1903C81.7967 14.1903 81.4594 14.1903 81.1181 14.1903C80.7756 14.1903 80.4279 14.1903 80.066 14.1903C79.7054 14.1903 79.3305 14.1903 78.935 14.1903C78.5395 14.1903 78.1233 14.1903 77.6774 14.1903C77.2314 14.1903 77.181 14.1903 76.6666 14.1903C76.5141 14.5968 76.346 14.9837 76.1793 15.3302C76.0126 15.6767 75.8484 15.9841 75.6636 16.302C75.4787 16.6198 75.2719 16.9494 75.0108 17.3246C75.5304 17.3246 75.5821 17.3246 76.032 17.3246C76.4818 17.3246 76.9005 17.3246 77.2987 17.3246C77.6968 17.3246 78.0729 17.3246 78.4361 17.3246C78.7993 17.3246 79.1496 17.3246 79.4934 17.3246C79.8372 17.3246 80.1759 17.3246 80.5145 17.3246C80.8532 17.3246 81.1918 17.3246 81.5356 17.3246C81.8794 17.3246 82.2284 17.3246 82.5865 17.3246C82.9445 17.3246 83.3103 17.3246 83.6851 17.3246C83.3956 17.7415 83.1216 18.0984 82.8605 18.4215C82.5994 18.7459 82.3512 19.0364 82.1056 19.3164C81.8613 19.5965 81.6196 19.8636 81.3702 20.1384C81.122 20.412 80.8648 20.6921 80.5908 20.9956C80.3167 21.2991 80.0233 21.6261 79.7067 22H65.1177C65.4718 21.5831 65.8247 21.191 66.1698 20.8106C66.5149 20.4302 66.8536 20.0629 67.1806 19.6968C67.5076 19.3321 67.823 18.9699 68.1229 18.6039C68.4227 18.2378 68.7097 17.8678 68.9811 17.4887C69.2512 17.1084 69.5046 16.7189 69.7411 16.315C69.9777 15.9112 70.1961 15.4904 70.3952 15.0514C70.5942 14.6124 70.7467 14.219 70.8786 13.8399C71.0091 13.4608 71.1177 13.0908 71.2043 12.7261C71.2909 12.3626 71.3555 12.0044 71.3982 11.6487C71.4421 11.2931 71.4641 10.9414 71.4654 10.5883C71.4667 10.2353 71.4473 9.88229 71.4059 9.52535C71.3646 9.16841 71.3012 8.80756 71.2146 8.43889C71.128 8.07023 71.0182 7.69505 70.8824 7.30815C70.7467 6.92125 70.5864 6.52262 70.3964 6.10836C70.2064 5.6941 69.9893 5.26421 69.7385 4.81348C69.4891 4.36274 69.206 3.89117 68.8867 3.39093C68.5675 2.892 68.212 2.3644 67.8126 1.80294C67.4145 1.24148 66.9725 0.643535 66.4826 0.00130397V0Z" fill="white"/>
<path d="M35.6825 0.00390748C35.2289 0.00390748 34.8219 0.00390748 34.4408 0.00390748C34.0597 0.00390748 33.7072 0.00390748 33.3624 0.00390748H32.3384C31.9936 0.00390748 31.6411 0.00390748 31.26 0.00390748C30.8789 0.00390748 30.4719 0.00390748 30.0183 0.00390748C30.4188 0.627827 30.7713 1.20095 31.0837 1.7376C31.3961 2.27425 31.6683 2.77312 31.9081 3.24464C32.1479 3.71616 32.354 4.15773 32.5328 4.57975C32.7117 5.00178 32.8634 5.40296 32.9904 5.78982C33.1174 6.17667 33.2224 6.5479 33.3054 6.91131C33.3883 7.27342 33.4505 7.62771 33.492 7.97549C33.5348 8.32457 33.5568 8.66845 33.5594 9.01101C33.562 9.35489 33.5451 9.69746 33.5076 10.0452C33.47 10.393 33.4116 10.7434 33.3287 11.1029C33.247 11.4624 33.1407 11.831 33.0085 12.2127C32.8763 12.5943 32.7156 12.9903 32.5225 13.4058C32.3293 13.8213 32.1025 14.259 31.8381 14.7188C31.5724 15.1786 31.2807 15.6266 30.9593 16.0669C31.0448 15.6579 31.1135 15.2424 31.1641 14.8165C31.2146 14.3905 31.2419 13.975 31.2432 13.5843C31.2432 13.1935 31.2211 12.8197 31.1783 12.4589C31.1356 12.098 31.0721 11.7503 30.9917 11.4116C30.9113 11.0729 30.8128 10.7421 30.6975 10.4165C30.5821 10.0908 30.4512 9.7704 30.3034 9.45128C30.1557 9.13215 29.9924 8.81433 29.8122 8.49391C29.632 8.17348 29.435 7.85175 29.2185 7.52351C29.0021 7.19526 28.7688 6.86181 28.5134 6.51794C28.2581 6.17407 27.982 5.82108 27.6813 5.45376C27.3806 5.08644 27.0552 4.7048 26.7001 4.30492C26.3449 3.90503 25.9626 3.48431 25.5439 3.04015C25.1252 2.59467 24.6729 2.12445 24.1777 1.62037C23.6826 1.11628 23.1473 0.579633 22.5614 0H17.2757C17.6191 0.625222 17.916 1.19965 18.1739 1.7376C18.4318 2.27555 18.6522 2.77442 18.8401 3.24595C19.0281 3.71747 19.1849 4.16033 19.3158 4.58236C19.4467 5.00438 19.5504 5.40557 19.6321 5.79242C19.7137 6.17928 19.7721 6.55051 19.8097 6.91392C19.8472 7.27602 19.8654 7.62901 19.8628 7.97809C19.8602 8.32587 19.8382 8.66975 19.7967 9.01362C19.7552 9.35619 19.693 9.70006 19.61 10.0465C19.5271 10.393 19.4221 10.7447 19.2938 11.1029C19.1655 11.4624 19.0125 11.8297 18.8311 12.2114C18.6496 12.593 18.4396 12.989 18.1959 13.4032C17.9523 13.8187 17.6723 14.2564 17.3521 14.7162C17.032 15.176 16.6833 15.624 16.3022 16.0643C16.4422 15.6553 16.5628 15.2398 16.6652 14.8139C16.7676 14.3879 16.8427 13.9724 16.892 13.5816C16.9412 13.1909 16.9646 12.8171 16.9685 12.4576C16.9711 12.098 16.9529 11.7503 16.9166 11.4116C16.8803 11.0729 16.8246 10.7434 16.752 10.4178C16.6794 10.0921 16.59 9.773 16.4837 9.45388C16.3774 9.13476 16.2556 8.81694 16.1156 8.49781C15.9769 8.17739 15.8201 7.85566 15.6464 7.52741C15.4714 7.19917 15.2796 6.86572 15.0657 6.52315C14.8531 6.17928 14.6185 5.82629 14.3619 5.45897C14.1039 5.09165 13.8227 4.71001 13.5142 4.31013C13.2044 3.90894 12.8674 3.48952 12.4967 3.04405C12.126 2.59858 11.7216 2.12706 11.2783 1.62297C10.8337 1.11889 10.3502 0.580935 9.81751 0H8.76372C8.44098 0 8.14027 0 7.84863 0C7.55699 0 7.27183 0 6.9802 0H6.0651C5.74236 0 5.39628 0 5.01132 0C5.49609 0.633037 5.93937 1.23091 6.34378 1.80012C6.74818 2.36803 7.1137 2.90728 7.44423 3.42309C7.77345 3.9389 8.06768 4.42996 8.32821 4.90278C8.58874 5.37561 8.81557 5.8302 9.01259 6.26915C9.20831 6.70941 9.37422 7.13405 9.50902 7.54956C9.64512 7.96377 9.7514 8.36886 9.83177 8.76614C9.91083 9.16341 9.96397 9.55287 9.9899 9.93843C10.0158 10.324 10.0171 10.7056 9.99379 11.086C9.97046 11.4663 9.9225 11.8454 9.8525 12.2244C9.78251 12.6034 9.68789 12.9851 9.57124 13.368C9.45458 13.751 9.31719 14.1391 9.15646 14.5312C8.99703 14.9233 8.82076 15.3049 8.6367 15.6618C8.45264 16.0187 8.25822 16.3574 8.05602 16.6817C7.85381 17.0047 7.64383 17.3147 7.42737 17.6117C7.21091 17.9087 6.98927 18.1953 6.76244 18.474C6.53561 18.7528 6.30619 19.0224 6.07288 19.2881C5.83957 19.5538 5.60496 19.8156 5.36776 20.0748C5.13186 20.334 4.89466 20.592 4.65876 20.8525C4.42286 21.1117 4.18696 21.3735 3.95365 21.6392C3.72034 21.9049 3.48962 22.1758 3.26409 22.4533C3.03726 22.732 2.81561 23.0173 2.59915 23.3156C2.38269 23.6126 2.17271 23.9213 1.97051 24.2456C1.76831 24.5686 1.57388 24.9073 1.38983 25.2655C1.20577 25.6224 1.02949 26.0001 0.86877 26.3974C0.709341 26.7947 0.569354 27.205 0.452699 27.6283C0.336044 28.0516 0.240128 28.4893 0.167543 28.94C0.0949572 29.3906 0.045703 29.8544 0.0197796 30.3311C-0.00614371 30.8078 -0.00614426 31.2976 0.0171867 31.8004C0.0418139 32.3031 0.0923655 32.8176 0.170136 33.3452C0.247906 33.8727 0.352895 34.412 0.487696 34.9629C0.622497 35.5139 0.785814 36.0766 0.981535 36.651C1.17726 37.2242 1.40409 37.809 1.66462 38.4043C1.92515 38.9995 2.22067 39.6039 2.55249 40.2174C2.88431 40.8309 3.25372 41.4535 3.66201 42.084C4.0716 42.7144 4.52007 43.3526 5.01261 43.9961H8.76502C9.08777 43.9961 9.43384 43.9961 9.8188 43.9961C9.4805 43.4464 9.17979 42.9124 8.91019 42.3927C8.64059 41.8729 8.40339 41.3689 8.19211 40.8778C7.98084 40.3867 7.79549 39.9087 7.63346 39.4437C7.47144 38.9774 7.33146 38.5241 7.21091 38.0799C7.09037 37.6358 6.98927 37.202 6.90502 36.7761C6.82077 36.3501 6.75466 35.932 6.70282 35.5217C6.65097 35.1114 6.61597 34.705 6.59524 34.3038C6.5745 33.9027 6.56931 33.5054 6.57838 33.112C6.58746 32.7173 6.61209 32.3266 6.65097 31.9358C6.69115 31.5451 6.74559 31.1556 6.81818 30.7648C6.89076 30.3754 6.9789 29.9846 7.08778 29.5925C7.19666 29.2005 7.32368 28.8084 7.47274 28.4137C7.6218 28.0191 7.79419 27.6231 7.9925 27.2258C8.19082 26.8285 8.41765 26.4274 8.66781 26.0314C8.91926 25.6354 9.19146 25.2472 9.48698 24.8656C9.39625 25.2238 9.32107 25.5859 9.25756 25.9571C9.19535 26.3271 9.14739 26.7035 9.12147 27.0773C9.09554 27.4499 9.08906 27.8224 9.09943 28.1923C9.1098 28.5622 9.13572 28.9322 9.17591 29.2995C9.21738 29.6668 9.27182 30.0341 9.34052 30.4001C9.40922 30.7661 9.49087 31.1322 9.58549 31.4982C9.68011 31.8642 9.7877 32.2302 9.90694 32.5988C10.0262 32.9674 10.1597 33.3374 10.3049 33.7099C10.45 34.0824 10.6082 34.4589 10.7819 34.8392C10.9542 35.2195 11.1409 35.6038 11.3431 35.9946C11.5453 36.3853 11.7631 36.7826 11.999 37.1864C12.2349 37.5902 12.4876 38.0031 12.7611 38.4238C13.0346 38.8445 13.3288 39.2757 13.6477 39.7159C13.9665 40.1562 14.3074 40.6082 14.6781 41.0719C15.0475 41.5356 15.4468 42.0097 15.8771 42.4982C16.3087 42.9853 16.7714 43.4868 17.2744 44H19.439C19.7604 44 20.0728 44 20.3942 44H22.5588C22.2737 43.4542 22.0248 42.9228 21.8045 42.4057C21.5841 41.8886 21.3949 41.3858 21.229 40.896C21.0644 40.4063 20.9231 39.9295 20.8051 39.4645C20.6872 38.9995 20.5887 38.5462 20.5096 38.1021C20.4305 37.6579 20.3696 37.2242 20.3242 36.7982C20.2802 36.3723 20.2517 35.9542 20.2387 35.5426C20.2257 35.131 20.2283 34.7246 20.2452 34.3234C20.262 33.9222 20.2944 33.5236 20.3411 33.129C20.3878 32.7343 20.45 32.3409 20.5277 31.9488C20.6055 31.5568 20.6988 31.166 20.8103 30.7753C20.9218 30.3845 21.0501 29.9924 21.1992 29.6004C21.3482 29.2083 21.5167 28.8136 21.7085 28.4189C21.9004 28.0243 22.1155 27.627 22.3579 27.2297C22.6003 26.8311 22.8738 26.43 23.1732 26.034C23.4726 25.638 23.7941 25.2499 24.1402 24.8682C23.9924 25.2499 23.8628 25.638 23.75 26.034C23.6372 26.43 23.5452 26.8311 23.4791 27.2297C23.4117 27.6283 23.3676 28.0243 23.343 28.4203C23.3184 28.8162 23.3132 29.2096 23.3249 29.6017C23.3365 29.995 23.365 30.3858 23.4091 30.7779C23.4532 31.1686 23.5115 31.5607 23.5854 31.9528C23.6593 32.3448 23.7474 32.7382 23.8498 33.1329C23.9522 33.5288 24.0702 33.9261 24.2024 34.3286C24.3346 34.7311 24.4823 35.1375 24.647 35.5491C24.8116 35.962 24.9917 36.3801 25.1913 36.806C25.391 37.232 25.6087 37.667 25.8485 38.1099C26.0883 38.5541 26.3488 39.0073 26.6353 39.4723C26.9217 39.9374 27.2328 40.4141 27.5724 40.9025C27.9133 41.3923 28.284 41.8938 28.6884 42.4096C29.0941 42.9254 29.5348 43.4555 30.017 44C30.4706 44 30.8776 44 31.2587 44H32.3371C32.6819 44 33.0163 44 33.3611 44C33.7059 44 34.0584 44 34.4395 44C34.8206 44 35.2276 44 35.6812 44C35.1965 43.367 34.7545 42.7365 34.3501 42.1126C33.9457 41.4887 33.5801 40.87 33.2509 40.2591C32.9217 39.6482 32.6275 39.0451 32.3669 38.4512C32.1064 37.8572 31.8796 37.2724 31.6826 36.6979C31.4868 36.1235 31.3209 35.5595 31.1848 35.0059C31.0487 34.4523 30.9424 33.9105 30.8621 33.3816C30.783 32.8515 30.7299 32.3344 30.7026 31.829C30.6754 31.3236 30.6754 30.8313 30.6988 30.3519C30.7221 29.8726 30.7701 29.4063 30.84 28.953C30.91 28.4997 31.0047 28.0607 31.1213 27.6361C31.238 27.2115 31.3754 26.7999 31.5361 26.4026C31.6968 26.0053 31.8718 25.6276 32.0571 25.2707C32.2412 24.9138 32.4356 24.5751 32.6391 24.2508C32.8413 23.9278 33.0513 23.6178 33.2678 23.3208C33.4842 23.0238 33.7059 22.7372 33.9327 22.4585C34.1595 22.1798 34.3889 21.9101 34.6223 21.6444C34.8556 21.3787 35.0902 21.1169 35.3261 20.8577C35.562 20.5985 35.7992 20.3406 36.0351 20.08C36.271 19.8208 36.5069 19.559 36.7402 19.2933C36.9735 19.0276 37.2042 18.7567 37.4298 18.4792C37.6566 18.2005 37.8782 17.9152 38.0947 17.6169C38.3111 17.32 38.5211 17.0113 38.7233 16.6869C38.9255 16.3639 39.12 16.0252 39.3053 15.667C39.4894 15.3101 39.6656 14.9285 39.8264 14.5364C39.9858 14.1443 40.1245 13.7562 40.2398 13.3719C40.3552 12.9877 40.4485 12.606 40.5198 12.2257C40.5911 11.8454 40.6378 11.4663 40.6598 11.0847C40.6831 10.703 40.6805 10.3214 40.6533 9.93452C40.6261 9.54766 40.573 9.1569 40.4926 8.75832C40.4122 8.35974 40.3047 7.95465 40.1686 7.53914C40.0325 7.12362 39.8666 6.69769 39.6708 6.25743C39.4751 5.81717 39.247 5.36258 38.9865 4.89106C38.7259 4.41824 38.433 3.92718 38.1038 3.41267C37.7745 2.89817 37.4103 2.36152 37.0072 1.79491C36.6041 1.2283 36.1634 0.63434 35.6812 0.00390748H35.6825ZM16.2465 36.5156C16.2465 36.5156 16.1947 36.427 16.1 36.2603C16.0067 36.0936 15.8719 35.8487 15.7112 35.5374C15.5518 35.2261 15.3664 34.8496 15.1759 34.4185C14.9853 33.9886 14.7883 33.5041 14.6043 32.9818C14.4202 32.4594 14.2504 31.8967 14.1104 31.3119C13.9717 30.7271 13.8628 30.1175 13.8006 29.5014C13.7384 28.8853 13.7216 28.2613 13.7617 27.6452C13.8006 27.0291 13.903 26.4156 14.0508 25.8386C14.1973 25.2616 14.3826 24.7236 14.5991 24.2208C14.8155 23.7181 15.0618 23.2504 15.3314 22.8115C15.5997 22.3725 15.89 21.9609 16.1921 21.5728C16.4941 21.1833 16.8077 20.8173 17.1266 20.4682C17.4455 20.1204 17.8032 19.7531 18.1869 19.3636C18.5705 18.9742 18.9775 18.5639 19.3949 18.1249C19.811 17.686 20.2348 17.2184 20.6509 16.7156C21.0669 16.2128 21.4739 15.6748 21.8563 15.0978C22.2387 14.5208 22.5925 13.919 22.8894 13.3615C23.1862 12.804 23.4337 12.2726 23.6359 11.7659C23.8381 11.2592 23.9937 10.7786 24.1116 10.3253C24.2296 9.872 24.3087 9.44476 24.3592 9.05139C24.4111 8.65672 24.4344 8.29461 24.4422 7.97158C24.4499 7.64855 24.4422 7.3646 24.4292 7.13014C24.4162 6.89568 24.3994 6.70941 24.3877 6.58176C24.3748 6.45411 24.367 6.38638 24.367 6.38638C24.367 6.38638 24.4422 6.48407 24.5744 6.66383C24.7053 6.84358 24.8932 7.10669 25.1058 7.43233C25.3184 7.75927 25.5569 8.15003 25.7876 8.5916C26.0183 9.03316 26.2412 9.52291 26.424 10.0544C26.6068 10.5858 26.7506 11.1563 26.8271 11.7646C26.9036 12.3729 26.9152 13.0163 26.8414 13.6976C26.7675 14.3788 26.6016 15.1147 26.3903 15.7699C26.179 16.4251 25.9159 17.0269 25.6152 17.5818C25.3158 18.138 24.9788 18.6486 24.6236 19.1266C24.2672 19.6046 23.8926 20.0488 23.5102 20.4669C23.216 20.7886 22.8881 21.126 22.5381 21.4816C22.1881 21.8372 21.8161 22.2123 21.4338 22.6096C21.0527 23.0069 20.6612 23.4276 20.275 23.877C19.8887 24.3263 19.5064 24.8044 19.1408 25.315C18.7753 25.8256 18.4215 26.3753 18.1117 26.9367C17.8019 27.498 17.5349 28.0712 17.3068 28.643C17.0799 29.2161 16.8933 29.7879 16.7429 30.348C16.5926 30.9081 16.4785 31.4539 16.3943 31.9762C16.31 32.4972 16.2556 32.9935 16.2219 33.4533C16.1882 33.9118 16.1752 34.3338 16.1739 34.7076C16.1726 35.0815 16.1817 35.4071 16.1947 35.6754C16.2063 35.9437 16.2219 36.1535 16.2322 36.2954C16.2426 36.4387 16.2491 36.5143 16.2491 36.5143L16.2465 36.5156Z" fill="white"/>
</svg>
